<svg width="18" height="14" viewBox="0 0 18 14" fill="none" xmlns="http://www.w3.org/2000/svg">
<path d="M8.35433 13.3727C8.54001 13.1833 8.64287 12.9279 8.64027 12.6627C8.63767 12.3975 8.52983 12.1442 8.34046 11.9585L4.34916 8.04475L16.0796 7.93679C16.3459 7.93418 16.6002 7.82589 16.7867 7.63575C16.9731 7.44561 17.0764 7.18919 17.0738 6.9229C17.0712 6.65661 16.9629 6.40227 16.7727 6.21582C16.5826 6.02937 16.3262 5.92609 16.0599 5.9287L4.32961 6.05081L8.24339 2.05951C8.42908 1.87014 8.53193 1.61477 8.52933 1.34957C8.52673 1.08436 8.41889 0.831052 8.22952 0.645364C8.04015 0.459675 7.78478 0.356817 7.51957 0.359418C7.25437 0.362019 7.00106 0.469865 6.81537 0.659231L1.21426 6.37128C1.02857 6.56065 0.925714 6.81602 0.928315 7.08123C0.930916 7.34643 1.03876 7.59974 1.22813 7.78543L6.94018 13.3865C7.12955 13.5722 7.38492 13.6751 7.65012 13.6725C7.91533 13.6699 8.16864 13.562 8.35433 13.3727Z" fill="white"/>
</svg>
