<svg width="18" height="14" viewBox="0 0 18 14" fill="none" xmlns="http://www.w3.org/2000/svg">
<path d="M9.71833 0.638768C9.53061 0.826114 9.42499 1.08036 9.42472 1.34558C9.42445 1.61079 9.52955 1.86525 9.7169 2.05298L13.6656 6.00971L1.93473 5.99076C1.66843 5.99049 1.41293 6.09601 1.22444 6.28413C1.03594 6.47224 0.929896 6.72753 0.929626 6.99383C0.929356 7.26013 1.03489 7.51563 1.223 7.70413C1.41111 7.89262 1.6664 7.99867 1.9327 7.99894L13.6636 8.00375L9.70687 11.9525C9.51915 12.1398 9.41353 12.3941 9.41326 12.6593C9.41299 12.9245 9.51809 13.179 9.70544 13.3667C9.89279 13.5544 10.147 13.66 10.4123 13.6603C10.6775 13.6606 10.9319 13.5555 11.1197 13.3681L16.7822 7.71699C16.97 7.52965 17.0756 7.2754 17.0758 7.01018C17.0761 6.74497 16.971 6.49051 16.7837 6.30278L11.1325 0.640201C10.9452 0.452474 10.691 0.34686 10.4257 0.346591C10.1605 0.346322 9.90606 0.451422 9.71833 0.638768Z" fill="white"/>
</svg>
