<svg width="26" height="26" viewBox="0 0 26 26" fill="none" xmlns="http://www.w3.org/2000/svg">
<path d="M12.3543 19.3727C12.54 19.1833 12.6429 18.9279 12.6403 18.6627C12.6377 18.3975 12.5298 18.1442 12.3405 17.9585L8.34916 14.0448L20.0796 13.9368C20.3459 13.9342 20.6002 13.8259 20.7867 13.6358C20.9731 13.4456 21.0764 13.1892 21.0738 12.9229C21.0712 12.6566 20.9629 12.4023 20.7727 12.2158C20.5826 12.0294 20.3262 11.9261 20.0599 11.9287L8.32961 12.0508L12.2434 8.05951C12.4291 7.87014 12.5319 7.61477 12.5293 7.34957C12.5267 7.08436 12.4189 6.83105 12.2295 6.64536C12.0402 6.45968 11.7848 6.35682 11.5196 6.35942C11.2544 6.36202 11.0011 6.46986 10.8154 6.65923L5.21426 12.3713C5.02857 12.5606 4.92571 12.816 4.92832 13.0812C4.93092 13.3464 5.03876 13.5997 5.22813 13.7854L10.9402 19.3865C11.1295 19.5722 11.3849 19.6751 11.6501 19.6725C11.9153 19.6699 12.1686 19.562 12.3543 19.3727Z" fill="white"/>
</svg>
